<svg width="230" height="81" viewBox="0 0 230 81" fill="none" xmlns="http://www.w3.org/2000/svg">
<g clip-path="url(#clip0)">
<path d="M58.8135 0C46.7006 0 37.0686 9.83152 37.0686 21.8641V52.3859H43.7818V44.0217H58.8135C70.7805 44.0217 80.5585 34.0435 80.5585 22.0109C80.5585 9.97826 70.7805 0 58.8135 0ZM58.8135 37.4185H43.7818V21.8641C43.7818 13.3533 50.495 6.45652 58.9595 6.45652C67.4239 6.45652 74.2831 13.3533 74.2831 21.8641C74.1371 30.375 67.1321 37.4185 58.8135 37.4185Z" fill="#4679BF"/>
<path d="M43.7817 56.6413V59.2826C43.7817 71.3152 33.8579 81.1467 21.8909 81.1467C9.92386 81.1467 0 71.3152 0 59.2826C0 47.25 9.63198 37.4185 21.7449 37.4185H37.2145V44.0217H21.7449C13.2805 44.0217 6.27538 50.7717 6.27538 59.2826C6.27538 67.7935 13.1345 74.6902 21.599 74.6902C28.8959 74.6902 35.0254 69.9946 36.4848 62.5109H31.231V56.6413H43.7817V56.6413Z" fill="#72C61B"/>
<path d="M110.184 25.6793V28.9076C110.184 34.9239 107.849 37.4185 101.865 37.4185H97.6332V47.1032H93.9847V17.7554H101.72C106.973 17.7554 110.184 19.8098 110.184 25.6793ZM97.6332 33.8967H101.865C105.076 33.8967 106.535 32.8696 106.535 28.9076V25.6793C106.535 21.7174 105.076 21.2772 101.865 21.1304H97.6332V33.8967Z" fill="#4679BF"/>
<path d="M120.4 47.25C114.562 47.25 112.227 45.0489 112.227 39.1793V32.7228C112.227 26.8532 115.292 24.7989 120.4 24.7989C125.362 24.7989 128.572 27 128.572 32.7228V37.4185H115.876V39.0326C115.876 42.9945 117.335 43.875 120.546 43.875C123.756 43.875 125.216 42.8478 125.216 40.5H128.718C128.572 44.9021 126.237 47.25 120.4 47.25ZM125.216 34.1902V32.5761C125.216 28.6141 123.319 27.8804 120.546 27.8804C117.773 27.8804 115.876 28.6141 115.876 32.5761V34.1902H125.216Z" fill="#4679BF"/>
<path d="M135.431 20.5435V24.9456H139.226V28.3206H135.431V40.7935C135.431 42.9945 136.453 44.0217 139.372 43.7282V47.1032C133.534 47.6902 131.929 45.1956 131.929 40.9402V20.9837L135.431 20.5435Z" fill="#4679BF"/>
<path d="M145.501 32.8696V47.1032H141.853V24.7989H145.063L145.209 26.8533C146.231 25.2391 148.858 24.212 151.485 24.7989V28.4674C148.128 28.0272 145.501 29.3478 145.501 32.8696Z" fill="#4679BF"/>
<path d="M153.09 39.0326V32.7228C153.09 26.8532 156.301 24.6522 161.409 24.6522C166.516 24.6522 169.727 26.8532 169.727 32.7228V39.0326C169.727 45.0489 167.246 47.5435 161.409 47.5435C155.425 47.3967 153.09 45.0489 153.09 39.0326ZM166.079 39.0326V32.7228C166.079 28.7609 164.327 27.8804 161.409 27.8804C158.49 27.8804 156.739 28.6141 156.739 32.7228V39.0326C156.739 42.9946 158.198 44.3152 161.409 44.3152C164.619 44.3152 166.079 42.9946 166.079 39.0326Z" fill="#4679BF"/>
<path d="M172.354 39.4728V32.7228C172.354 26.7065 175.419 24.6522 179.797 24.6522C182.424 24.6522 184.467 25.6793 185.197 27.7337L185.634 24.9456H188.553V47.6902C188.553 53.7065 185.343 56.2011 180.381 56.2011C175.711 56.2011 172.938 54.4402 172.792 49.5978H176.294C176.44 52.2391 178.192 52.8261 180.527 52.8261C183.445 52.8261 185.343 51.6522 185.343 47.6902V44.0217C184.759 45.4891 182.862 46.9565 180.089 46.9565C174.981 47.1033 172.354 44.6087 172.354 39.4728ZM185.197 38.0054V33.75C185.051 29.6413 183.445 28.3206 180.527 28.3206C177.608 28.3206 176.148 29.2011 176.148 32.8696V39.1793C176.148 42.7011 177.608 43.875 180.235 43.875C183.153 43.7283 185.197 42.5543 185.197 38.0054Z" fill="#72C61B"/>
<path d="M205.336 47.1033L205.044 44.7554C203.731 46.9565 201.542 47.3967 199.353 47.3967C194.537 47.3967 192.056 45.3424 192.056 39.3261V24.9456H195.704V39.1793C195.704 42.2609 197.456 43.875 199.936 43.875C202.709 43.875 204.752 42.2609 204.752 39.1793V24.9456H208.401V46.9565H205.336V47.1033Z" fill="#72C61B"/>
<path d="M216.428 17.7554V41.2337C216.428 42.9946 217.157 43.4348 218.763 43.4348V46.9565C214.53 46.9565 212.925 45.9293 212.925 41.2337V17.7554H216.428V17.7554Z" fill="#72C61B"/>
<path d="M230 17.6087V20.8369C226.789 20.5435 224.6 21.2772 224.6 25.6793V26.413H229.27V29.788H224.6V47.1032H220.952V25.6793C221.098 19.5163 224.746 17.0217 230 17.6087Z" fill="#72C61B"/>
<path d="M101.719 55.4674V56.9348C101.719 59.8696 100.552 61.0435 97.7792 61.0435H95.736V65.7391H93.9847V51.6522H97.7792C100.26 51.6522 101.719 52.6793 101.719 55.4674ZM95.736 59.4293H97.7792C99.3845 59.4293 99.9682 58.9891 99.9682 57.0815V55.6141C99.9682 53.7065 99.2385 53.5598 97.7792 53.413H95.736V59.4293Z" fill="#7C7C7C"/>
<path d="M103.179 61.9239V58.8424C103.179 56.0543 104.638 55.0272 107.119 55.0272C109.6 55.0272 111.06 56.0543 111.06 58.8424V61.9239C111.06 64.8587 109.892 66.0326 107.119 66.0326C104.346 66.0326 103.179 64.8587 103.179 61.9239ZM109.454 61.9239V58.8424C109.454 56.9348 108.579 56.4946 107.265 56.4946C105.806 56.4946 105.076 56.9348 105.076 58.8424V61.9239C105.076 63.8315 105.806 64.4185 107.265 64.4185C108.725 64.4185 109.454 63.8315 109.454 61.9239Z" fill="#7C7C7C"/>
<path d="M115 51.6522V62.9511C115 63.8315 115.292 63.9782 116.021 63.9782V65.7391C113.978 65.7391 113.249 65.1522 113.249 62.9511V51.6522H115V51.6522Z" fill="#7C7C7C"/>
<path d="M122.443 58.4022L123.464 55.0272H125.216L121.859 65.7391L121.275 67.7935C120.546 69.9945 119.378 70.4348 117.481 69.7011L117.773 68.2337C118.503 68.5272 119.378 68.6739 119.816 67.3532L120.254 65.8859L116.897 55.1739H118.794L119.816 58.5489L121.129 63.538C121.421 62.5109 121.713 61.0435 122.443 58.4022Z" fill="#7C7C7C"/>
<path d="M128.426 55.1739L128.572 56.3478C129.302 55.3206 130.178 55.0272 131.345 55.0272C132.659 55.0272 133.68 55.4674 134.264 56.3478C134.994 55.4674 136.015 55.0272 137.475 55.0272C139.81 55.0272 141.123 55.9076 141.123 58.9891V65.8858H139.372V58.9891C139.372 57.375 138.496 56.788 137.329 56.788C135.723 56.788 134.994 57.6685 134.994 59.5761V66.0326H133.242V58.9891C133.242 57.0815 132.367 56.788 131.199 56.788C129.886 56.788 128.864 57.375 128.864 58.9891V65.8858H126.967V55.1739H128.426V55.1739Z" fill="#7C7C7C"/>
<path d="M147.253 65.8859C144.48 65.8859 143.312 64.8587 143.312 61.9239V58.8424C143.312 56.0543 144.772 55.0272 147.253 55.0272C149.588 55.0272 151.193 56.0543 151.193 58.8424V61.1902H145.063V61.9239C145.063 63.8315 145.793 64.2717 147.253 64.2717C148.712 64.2717 149.442 63.8315 149.442 62.6576H151.047C151.047 64.7119 149.879 65.8859 147.253 65.8859ZM149.442 59.5761V58.8424C149.442 56.9348 148.566 56.4946 147.107 56.4946C145.793 56.4946 144.917 56.9348 144.917 58.8424V59.5761H149.442Z" fill="#7C7C7C"/>
<path d="M154.841 58.9891V65.8859H153.09V55.1739H154.695V56.2011C155.279 55.4674 156.447 54.8804 157.76 55.1739V56.9348C156.155 56.6413 154.841 57.2283 154.841 58.9891Z" fill="#7C7C7C"/>
<path d="M162.722 56.4946C161.555 56.4946 160.825 57.0815 160.825 58.2554C160.825 59.5761 161.846 59.4293 163.014 59.5761C164.619 59.7228 166.516 60.0163 166.516 62.5109C166.516 64.712 164.911 65.8859 162.722 65.8859C160.241 65.8859 158.928 64.712 158.928 62.5109H160.679C160.825 63.8315 161.7 64.2717 162.722 64.2717C164.035 64.2717 164.765 63.538 164.765 62.5109C164.765 61.1902 163.598 61.1902 162.284 61.0435C160.971 60.8967 159.074 60.6033 159.074 58.1087C159.074 56.2011 160.241 54.8804 162.722 54.8804C165.203 54.8804 166.37 56.0543 166.225 57.962H164.619C164.765 57.0815 164.181 56.4946 162.722 56.4946Z" fill="#7C7C7C"/>
</g>
<defs>
<clipPath id="clip0">
<rect width="230" height="81" fill="white"/>
</clipPath>
</defs>
</svg>
