<?xml version="1.0" encoding="utf-8"?>
<!-- Generator: Adobe Illustrator 22.1.0, SVG Export Plug-In . SVG Version: 6.00 Build 0)  -->
<svg version="1.1" id="Ebene_1" xmlns="http://www.w3.org/2000/svg" xmlns:xlink="http://www.w3.org/1999/xlink" x="0px" y="0px"
	 viewBox="0 0 243.78 76.535" style="enable-background:new 0 0 243.78 76.535;" xml:space="preserve">
<style type="text/css">
	.st0{fill:#EE690E;}
	.st1{fill:#20201E;}
</style>
<path class="st0" d="M59.228,2.001c-9.098,0-16.475,7.376-16.475,16.475c0,9.098,7.377,16.474,16.475,16.474
	c9.098,0,16.475-7.376,16.475-16.474C75.703,9.377,68.326,2.001,59.228,2.001 M59.228,29.097c-5.866,0-10.621-4.755-10.621-10.621
	S53.362,7.855,59.228,7.855c5.866,0,10.621,4.755,10.621,10.621S65.094,29.097,59.228,29.097"/>
<rect x="77.831" y="40.124" class="st1" width="164.565" height="1.106"/>
<polygon class="st1" points="77.796,47.686 80.253,47.686 80.253,56.732 89.888,47.686 93.125,47.686 81.549,58.501 94.025,71.789 
	90.817,71.789 80.253,60.563 80.253,71.789 77.796,71.789 "/>
<path class="st1" d="M95.273,53.961h2.294v8.324c0,2.032,0.109,3.43,0.327,4.195c0.33,1.092,0.955,1.955,1.88,2.588
	c0.924,0.634,2.026,0.951,3.307,0.951c1.279,0,2.365-0.309,3.257-0.926c0.891-0.616,1.506-1.428,1.846-2.434
	c0.23-0.686,0.345-2.146,0.345-4.374v-8.324h2.343v8.75c0,2.458-0.287,4.31-0.861,5.555c-0.572,1.245-1.435,2.22-2.589,2.924
	c-1.151,0.706-2.597,1.058-4.333,1.058c-1.738,0-3.187-0.352-4.351-1.058c-1.163-0.704-2.031-1.687-2.604-2.949
	c-0.574-1.261-0.861-3.16-0.861-5.694V53.961z"/>
<path class="st1" d="M115.129,53.961h2.294v3.195c0.917-1.223,1.933-2.138,3.048-2.745c1.114-0.606,2.326-0.909,3.637-0.909
	c1.332,0,2.515,0.339,3.548,1.016c1.032,0.678,1.794,1.589,2.285,2.737c0.492,1.146,0.738,2.932,0.738,5.358v9.176h-2.294v-8.504
	c0-2.054-0.086-3.425-0.255-4.114c-0.266-1.179-0.776-2.066-1.53-2.662c-0.754-0.596-1.737-0.892-2.95-0.892
	c-1.387,0-2.631,0.459-3.728,1.376c-1.099,0.918-1.822,2.053-2.172,3.408c-0.218,0.884-0.327,2.502-0.327,4.851v6.537h-2.294V53.961
	z"/>
<path class="st1" d="M144.556,55.911l-1.474,1.524c-1.227-1.19-2.425-1.786-3.597-1.786c-0.745,0-1.384,0.246-1.915,0.737
	c-0.53,0.492-0.797,1.067-0.797,1.722c0,0.579,0.22,1.129,0.657,1.655c0.438,0.534,1.358,1.164,2.759,1.885
	c1.707,0.883,2.869,1.735,3.482,2.555c0.601,0.83,0.902,1.763,0.902,2.802c0,1.463-0.514,2.704-1.543,3.719
	c-1.028,1.016-2.313,1.523-3.855,1.523c-1.03,0-2.012-0.223-2.946-0.672c-0.936-0.446-1.71-1.064-2.323-1.851l1.442-1.638
	c1.171,1.322,2.415,1.983,3.729,1.983c0.919,0,1.702-0.295,2.348-0.885c0.646-0.589,0.969-1.284,0.969-2.081
	c0-0.655-0.214-1.24-0.64-1.754c-0.427-0.503-1.391-1.135-2.891-1.901c-1.609-0.829-2.704-1.649-3.284-2.456
	c-0.579-0.809-0.87-1.732-0.87-2.769c0-1.355,0.462-2.481,1.387-3.377c0.924-0.895,2.092-1.343,3.505-1.343
	C141.242,53.503,142.893,54.307,144.556,55.911"/>
<polygon class="st1" points="150.62,47.342 152.914,47.342 152.914,53.962 156.551,53.962 156.551,55.945 152.914,55.945 
	152.914,71.789 150.62,71.789 150.62,55.945 147.491,55.945 147.491,53.962 150.62,53.962 "/>
<path class="st1" d="M168.956,55.911l-1.474,1.524c-1.227-1.19-2.427-1.786-3.599-1.786c-0.745,0-1.382,0.246-1.914,0.737
	c-0.53,0.492-0.796,1.067-0.796,1.722c0,0.579,0.219,1.129,0.657,1.655c0.438,0.534,1.357,1.164,2.757,1.885
	c1.709,0.883,2.87,1.735,3.482,2.555c0.602,0.83,0.904,1.763,0.904,2.802c0,1.463-0.515,2.704-1.543,3.719
	c-1.028,1.016-2.315,1.523-3.856,1.523c-1.029,0-2.01-0.223-2.946-0.672c-0.936-0.446-1.71-1.064-2.322-1.851l1.442-1.638
	c1.17,1.322,2.413,1.983,3.727,1.983c0.921,0,1.703-0.295,2.348-0.885c0.647-0.589,0.971-1.284,0.971-2.081
	c0-0.655-0.214-1.24-0.641-1.754c-0.426-0.503-1.39-1.135-2.89-1.901c-1.609-0.829-2.704-1.649-3.285-2.456
	c-0.578-0.809-0.87-1.732-0.87-2.769c0-1.355,0.462-2.481,1.387-3.377c0.925-0.895,2.093-1.343,3.505-1.343
	C165.641,53.503,167.293,54.307,168.956,55.911"/>
<polygon class="st1" points="175.019,47.342 177.313,47.342 177.313,53.962 180.949,53.962 180.949,55.945 177.313,55.945 
	177.313,71.789 175.019,71.789 175.019,55.945 171.889,55.945 171.889,53.962 175.019,53.962 "/>
<path class="st1" d="M191.989,53.503c2.747,0,5.025,0.994,6.829,2.983c1.641,1.812,2.463,3.959,2.463,6.439
	c0,2.49-0.867,4.667-2.602,6.529c-1.735,1.862-3.964,2.794-6.69,2.794c-2.734,0-4.969-0.932-6.704-2.794
	c-1.735-1.862-2.602-4.039-2.602-6.529c0-2.469,0.821-4.611,2.463-6.424C186.95,54.503,189.232,53.503,191.989,53.503
	 M191.982,55.748c-1.906,0-3.547,0.704-4.917,2.114c-1.37,1.409-2.055,3.113-2.055,5.112c0,1.288,0.312,2.491,0.938,3.605
	c0.624,1.113,1.469,1.974,2.531,2.58c1.064,0.607,2.231,0.91,3.503,0.91c1.271,0,2.439-0.303,3.503-0.91
	c1.064-0.606,1.907-1.467,2.531-2.58c0.626-1.114,0.938-2.317,0.938-3.605c0-1.999-0.688-3.703-2.064-5.112
	C195.515,56.452,193.878,55.748,191.982,55.748"/>
<path class="st1" d="M212.026,47.079v2.245c-0.841-0.361-1.563-0.54-2.162-0.54c-0.449,0-0.819,0.089-1.115,0.27
	c-0.294,0.179-0.481,0.387-0.556,0.622c-0.077,0.235-0.116,0.86-0.116,1.877l-0.002,2.408h3.722v1.983h-3.723l-0.013,15.844h-2.294
	V55.945h-2.344v-1.983h2.344v-2.786c0-1.278,0.118-2.19,0.352-2.736c0.236-0.546,0.633-0.985,1.197-1.319
	c0.563-0.333,1.242-0.5,2.04-0.5C210.098,46.62,210.988,46.774,212.026,47.079"/>
<path class="st1" d="M222.226,47.079v2.245c-0.841-0.361-1.562-0.54-2.162-0.54c-0.449,0-0.82,0.089-1.115,0.27
	c-0.294,0.179-0.481,0.387-0.556,0.622c-0.077,0.235-0.116,0.86-0.116,1.877l-0.002,2.408h3.722v1.983h-3.724l-0.012,15.844h-2.294
	V55.945h-2.344v-1.983h2.344v-2.786c0-1.278,0.118-2.19,0.352-2.736c0.236-0.546,0.633-0.985,1.197-1.319
	c0.563-0.333,1.242-0.5,2.04-0.5C220.298,46.62,221.188,46.774,222.226,47.079"/>
<path class="st1" d="M239.592,65.873l1.933,1.017c-0.635,1.245-1.366,2.249-2.198,3.015c-0.831,0.764-1.765,1.346-2.805,1.744
	c-1.038,0.399-2.213,0.599-3.525,0.599c-2.908,0-5.183-0.952-6.823-2.86c-1.64-1.906-2.459-4.061-2.459-6.464
	c0-2.26,0.692-4.277,2.081-6.046c1.761-2.25,4.117-3.375,7.069-3.375c3.04,0,5.466,1.152,7.282,3.457
	c1.289,1.627,1.946,3.659,1.967,6.095h-16.041c0.045,2.071,0.707,3.769,1.985,5.093c1.281,1.325,2.861,1.986,4.742,1.986
	c0.907,0,1.791-0.157,2.649-0.474c0.859-0.315,1.589-0.734,2.191-1.256C238.241,67.881,238.892,67.038,239.592,65.873
	 M239.592,61.073c-0.306-1.223-0.753-2.201-1.338-2.934c-0.586-0.732-1.358-1.32-2.322-1.769c-0.962-0.448-1.973-0.671-3.034-0.671
	c-1.751,0-3.255,0.562-4.512,1.688c-0.918,0.818-1.612,2.047-2.083,3.686H239.592z"/>
<path class="st0" d="M93.332,14.203l-3.596,3.602c-1.46-1.447-2.785-2.171-3.977-2.171c-0.652,0-1.163,0.139-1.532,0.416
	c-0.369,0.278-0.552,0.623-0.552,1.034c0,0.313,0.117,0.6,0.35,0.863c0.235,0.264,0.813,0.622,1.737,1.077l2.13,1.066
	c2.243,1.107,3.784,2.238,4.622,3.388c0.838,1.152,1.257,2.501,1.257,4.05c0,2.061-0.757,3.779-2.271,5.159
	c-1.514,1.378-3.543,2.067-6.088,2.067c-3.384,0-6.085-1.323-8.103-3.971l3.58-3.906c0.681,0.794,1.481,1.436,2.398,1.926
	c0.916,0.488,1.729,0.732,2.44,0.732c0.767,0,1.384-0.184,1.853-0.553c0.469-0.369,0.704-0.796,0.704-1.279
	c0-0.894-0.846-1.767-2.536-2.619l-1.96-0.98c-3.751-1.888-5.625-4.252-5.625-7.092c0-1.832,0.706-3.397,2.12-4.697
	c1.413-1.3,3.22-1.948,5.421-1.948c1.506,0,2.924,0.331,4.251,0.991C91.283,12.018,92.409,12.967,93.332,14.203"/>
<polygon class="st0" points="98.635,2.391 104.463,2.391 104.463,10.952 107.926,10.952 107.926,15.976 104.463,15.976 
	104.463,34.169 98.635,34.169 98.635,15.976 95.635,15.976 95.635,10.952 98.635,10.952 "/>
<path class="st0" d="M134.275,24.243h-18.709c0.271,1.647,0.992,2.958,2.165,3.931c1.174,0.972,2.67,1.459,4.49,1.459
	c2.176,0,4.044-0.76,5.609-2.279l4.906,2.303c-1.224,1.735-2.689,3.019-4.394,3.85c-1.708,0.831-3.733,1.247-6.08,1.247
	c-3.641,0-6.605-1.147-8.895-3.442c-2.289-2.296-3.434-5.17-3.434-8.623c0-3.539,1.141-6.476,3.423-8.815
	c2.285-2.338,5.147-3.507,8.589-3.507c3.654,0,6.627,1.169,8.916,3.507c2.29,2.336,3.436,5.424,3.436,9.262L134.275,24.243z
	 M128.444,19.657c-0.385-1.291-1.141-2.342-2.273-3.151c-1.131-0.809-2.443-1.214-3.936-1.214c-1.622,0-3.043,0.454-4.266,1.363
	c-0.768,0.568-1.479,1.569-2.134,3.002H128.444z"/>
<path class="st0" d="M137.913,10.952h5.828v2.389c1.32-1.114,2.517-1.886,3.588-2.321c1.072-0.435,2.168-0.653,3.29-0.653
	c2.298,0,4.25,0.804,5.854,2.41c1.349,1.366,2.024,3.383,2.024,6.057v15.335h-5.756V24.011c0-2.768-0.125-4.606-0.373-5.514
	c-0.247-0.909-0.681-1.6-1.298-2.076c-0.616-0.476-1.379-0.714-2.287-0.714c-1.177,0-2.188,0.395-3.031,1.182
	c-0.845,0.789-1.429,1.877-1.755,3.269c-0.17,0.724-0.256,2.293-0.256,4.705v9.306h-5.828V10.952z"/>
<path class="st0" d="M180.167,1.977h5.828v32.192h-5.828v-2.463c-1.136,1.079-2.276,1.857-3.419,2.333
	c-1.144,0.477-2.383,0.715-3.718,0.715c-2.997,0-5.589-1.161-7.777-3.486c-2.186-2.323-3.28-5.211-3.28-8.666
	c0-3.581,1.059-6.515,3.175-8.802c2.116-2.289,4.686-3.434,7.712-3.434c1.391,0,2.698,0.265,3.92,0.792
	c1.22,0.527,2.351,1.319,3.387,2.374V1.977z M174.053,15.756c-1.8,0-3.297,0.635-4.489,1.904c-1.19,1.269-1.786,2.897-1.786,4.882
	c0,1.999,0.606,3.646,1.818,4.935c1.213,1.291,2.706,1.936,4.478,1.936c1.829,0,3.348-0.634,4.554-1.903
	c1.204-1.27,1.807-2.933,1.807-4.989c0-2.014-0.603-3.645-1.807-4.893C177.422,16.38,175.897,15.756,174.053,15.756"/>
<path class="st0" d="M201.702,10.366c2.192,0,4.253,0.547,6.181,1.642c1.93,1.094,3.434,2.578,4.517,4.455
	c1.081,1.876,1.623,3.901,1.623,6.075c0,2.189-0.546,4.235-1.634,6.14c-1.09,1.904-2.573,3.393-4.453,4.466
	c-1.879,1.073-3.95,1.61-6.212,1.61c-3.333,0-6.174-1.183-8.532-3.549c-2.356-2.367-3.533-5.242-3.533-8.624
	c0-3.624,1.331-6.644,3.992-9.06C195.987,11.418,198.67,10.366,201.702,10.366 M201.794,15.853c-1.812,0-3.318,0.628-4.524,1.886
	c-1.204,1.258-1.806,2.865-1.806,4.826c0,2.016,0.593,3.649,1.785,4.9c1.19,1.25,2.698,1.875,4.524,1.875
	c1.824,0,3.342-0.632,4.554-1.897c1.212-1.264,1.819-2.889,1.819-4.878s-0.597-3.604-1.787-4.847
	C205.168,16.475,203.647,15.853,201.794,15.853"/>
<path class="st0" d="M217.416,10.952h4.999v2.929c0.54-1.15,1.258-2.023,2.153-2.62c0.896-0.595,1.876-0.894,2.943-0.894
	c0.753,0,1.542,0.2,2.366,0.597l-1.814,5.012c-0.684-0.342-1.246-0.513-1.686-0.513c-0.898,0-1.656,0.555-2.274,1.664
	c-0.619,1.109-0.928,3.285-0.928,6.526l0.02,1.131v9.385h-5.779V10.952z"/>
<path class="st0" d="M230.852,10.952h2.073c0.014-3.043,0.064-4.844,0.15-5.399c0.157-1.28,0.694-2.294,1.615-3.04
	c0.919-0.748,2.223-1.121,3.905-1.121c1.214,0,2.582,0.277,4.109,0.831v4.434c-0.844-0.242-1.538-0.363-2.081-0.363
	c-0.686,0-1.188,0.143-1.502,0.427c-0.228,0.214-0.343,0.656-0.343,1.325l-0.021,2.906h3.704v4.927h-3.707v18.29h-5.829v-18.29
	h-2.073V10.952z"/>
<path class="st0" d="M42.632,46.014l29.106,29.13V48.1c-3.845,1.626-8.072,2.525-12.51,2.527
	C53.154,50.626,47.476,48.94,42.632,46.014 M30.306,4.424H1.076l30.603,30.628c-2.918-4.84-4.6-10.511-4.601-16.577
	C27.079,13.437,28.24,8.67,30.306,4.424"/>
<path class="st1" d="M33.497,18.475c0.01-5.188,1.553-10.013,4.196-14.051H33.58c-2.29,4.171-3.594,8.958-3.595,14.051
	c0.002,16.15,13.092,29.242,29.242,29.244c4.477-0.001,8.718-1.011,12.51-2.811v-3.965c-3.702,2.069-7.966,3.254-12.51,3.262
	C45.016,44.18,33.522,32.683,33.497,18.475 M59.227,37.845c-10.698-0.018-19.352-8.673-19.371-19.369
	c0.01-5.537,2.338-10.524,6.061-14.052h-4.743c-3.023,3.88-4.829,8.753-4.83,14.052c0.002,12.637,10.244,22.881,22.883,22.882
	c4.619-0.001,8.915-1.374,12.51-3.726v-4.387C68.363,36.106,64.001,37.837,59.227,37.845"/>
<g>
</g>
<g>
</g>
<g>
</g>
<g>
</g>
<g>
</g>
<g>
</g>
</svg>
